<?xml version="1.0" standalone="no"?>
<!DOCTYPE svg PUBLIC "-//W3C//DTD SVG 20010904//EN"
 "http://www.w3.org/TR/2001/REC-SVG-20010904/DTD/svg10.dtd">
<svg version="1.0" xmlns="http://www.w3.org/2000/svg"
 width="1248.000000pt" height="275.000000pt" viewBox="0 0 1248.000000 275.000000"
 preserveAspectRatio="xMidYMid meet">

<g transform="translate(0.000000,275.000000) scale(0.100000,-0.100000)"
fill="#000000" stroke="none">
<path d="M12228 2653 l-248 -96 0 -367 0 -367 -97 49 c-147 73 -226 91 -413
92 -122 1 -171 -3 -230 -18 -333 -85 -563 -320 -657 -674 -24 -88 -26 -114
-26 -287 0 -173 2 -199 26 -287 73 -275 238 -489 460 -598 129 -64 231 -90
377 -97 188 -9 367 33 513 121 l57 35 0 -53 0 -53 143 -6 c78 -4 188 -7 245
-7 l102 0 0 1355 c0 745 -1 1355 -2 1355 -2 -1 -114 -44 -250 -97z m-631
-1143 c177 -29 298 -135 359 -316 23 -67 27 -96 27 -194 1 -219 -72 -378 -215
-470 -84 -55 -165 -74 -288 -68 -93 5 -107 8 -184 46 -141 70 -230 191 -261
358 -19 97 -19 156 1 251 36 175 149 312 304 369 90 32 164 39 257 24z"/>
<path d="M7748 2448 l-238 -101 0 -208 0 -209 -170 0 -170 0 0 -225 0 -225
168 -2 167 -3 5 -520 5 -520 26 -66 c68 -175 175 -280 344 -336 71 -24 96 -27
220 -27 87 -1 161 4 195 13 98 24 90 3 90 247 l0 215 -98 -7 c-163 -11 -244
26 -272 124 -6 23 -10 200 -10 460 l0 422 190 0 190 0 -2 223 -3 222 -187 3
-188 2 0 310 c0 242 -3 310 -12 309 -7 -1 -120 -46 -250 -101z"/>
<path d="M6247 1969 c-148 -20 -266 -77 -369 -180 l-67 -66 -3 101 -3 101
-247 3 -248 2 0 -940 0 -940 250 0 250 0 0 523 c0 287 5 560 10 607 18 154
103 275 223 317 60 20 179 23 243 5 61 -18 129 -68 162 -120 62 -97 62 -97 62
-744 l0 -588 255 0 256 0 -3 678 c-4 669 -4 678 -26 756 -39 134 -88 222 -172
306 -46 46 -99 89 -137 108 -116 61 -294 90 -436 71z"/>
<path d="M3830 1956 c-352 -75 -619 -338 -722 -714 -18 -64 -22 -106 -22 -252
-1 -161 1 -183 26 -272 68 -244 204 -437 399 -567 254 -170 564 -197 836 -71
45 21 102 52 127 69 l46 32 0 -66 0 -65 245 0 245 0 0 940 0 940 -245 0 -245
0 0 -64 0 -65 -56 34 c-68 41 -180 89 -260 111 -81 22 -290 27 -374 10z m386
-470 c164 -60 268 -205 294 -411 12 -93 2 -201 -24 -290 -17 -57 -75 -157
-114 -198 -139 -145 -413 -171 -595 -55 -132 85 -211 231 -223 418 -22 336
210 585 524 564 41 -3 102 -15 138 -28z"/>
<path d="M9293 1956 c-236 -45 -432 -171 -563 -361 -120 -174 -192 -455 -175
-680 28 -380 209 -676 499 -819 144 -72 222 -89 406 -90 205 0 328 30 483 122
74 43 196 157 253 237 43 61 117 205 110 213 -6 6 -407 91 -431 92 -14 0 -28
-14 -44 -45 -35 -65 -115 -141 -189 -177 -52 -26 -79 -33 -146 -36 -139 -7
-249 38 -338 137 -46 52 -111 182 -126 253 l-10 48 677 2 676 3 -1 160 c-1
137 -5 174 -27 257 -91 344 -317 583 -634 669 -101 27 -316 35 -420 15z m258
-446 c82 -15 169 -63 226 -123 50 -53 118 -169 106 -181 -11 -11 -833 -7 -833
4 0 6 14 38 31 72 87 172 277 264 470 228z"/>
<path d="M1 1923 c0 -5 134 -426 298 -938 l297 -930 271 -3 272 -2 30 97 c17
54 107 336 200 628 143 448 171 526 179 505 5 -14 96 -296 203 -628 l193 -602
270 2 270 3 298 935 c164 514 298 936 298 938 0 1 -120 1 -267 0 l-268 -3
-170 -592 c-94 -326 -173 -594 -176 -597 -2 -2 -46 118 -97 267 -50 150 -142
419 -203 600 l-111 327 -248 0 -248 0 -79 -232 c-44 -128 -136 -398 -204 -600
-68 -201 -126 -364 -129 -362 -2 3 -81 272 -175 597 l-170 592 -268 3 c-147 1
-267 -1 -266 -5z"/>
</g>
</svg>
